<svg xmlns="http://www.w3.org/2000/svg" xmlns:xlink="http://www.w3.org/1999/xlink" width="500" zoomAndPan="magnify" viewBox="0 0 375 374.999991" height="500" preserveAspectRatio="xMidYMid meet" version="1.0"><defs><clipPath id="0e8d95c1f0"><path d="M 0 0.808594 L 23 0.808594 L 23 39.808594 L 0 39.808594 Z M 0 0.808594 " clip-rule="nonzero"/></clipPath><clipPath id="c787016ec6"><path d="M 22 16 L 44 16 L 44 39.808594 L 22 39.808594 Z M 22 16 " clip-rule="nonzero"/></clipPath></defs><rect x="-37.5" width="450" fill="#ffffff" y="-37.499999" height="449.999989" fill-opacity="1"/><rect x="-37.5" width="450" fill="#ffffff" y="-37.499999" height="449.999989" fill-opacity="1"/><g clip-path="url(#0e8d95c1f0)"><path fill="#36a03d" d="M 18.105469 39.148438 C 18.53125 21.058594 10.722656 15.171875 10.722656 15.171875 C 16.730469 19.316406 19.617188 28.347656 20.238281 36.214844 C 30.761719 4.355469 0.0117188 0.8125 0 0.8125 C 1.859375 3.378906 1.492188 11.320312 1.878906 15.007812 C 2.359375 19.59375 4.769531 23.851562 8.269531 26.699219 C 10.445312 28.464844 16.425781 32.375 18.105469 39.148438 " fill-opacity="1" fill-rule="nonzero"/></g><g clip-path="url(#c787016ec6)"><path fill="#c1ff72" d="M 22.785156 38.710938 C 34.742188 32.230469 36.777344 23.613281 36.777344 23.613281 C 36.203125 31.136719 31.246094 36.339844 26.347656 39.683594 C 51.84375 33.433594 40.960938 16.066406 40.960938 16.066406 C 39.578125 18.304688 30.636719 21.808594 28.210938 23.449219 C 20.628906 28.585938 21.773438 35.59375 22.785156 38.710938 " fill-opacity="1" fill-rule="nonzero"/></g></svg>