<svg xmlns="http://www.w3.org/2000/svg" xmlns:xlink="http://www.w3.org/1999/xlink" width="86" zoomAndPan="magnify" viewBox="0 0 64.5 68.249996" height="91" preserveAspectRatio="xMidYMid meet" version="1.0"><defs><clipPath id="d2f39b2316"><path d="M 0.101562 3.5625 L 33 3.5625 L 33 59.941406 L 0.101562 59.941406 Z M 0.101562 3.5625 " clip-rule="nonzero"/></clipPath><clipPath id="a6d0f87f68"><path d="M 32 25 L 63 25 L 63 59.941406 L 32 59.941406 Z M 32 25 " clip-rule="nonzero"/></clipPath></defs><g clip-path="url(#d2f39b2316)"><path fill="#36a03d" d="M 26.300781 59.042969 C 26.917969 32.871094 15.617188 24.347656 15.617188 24.347656 C 24.316406 30.347656 28.488281 43.414062 29.390625 54.800781 C 44.617188 8.695312 0.117188 3.570312 0.101562 3.570312 C 2.792969 7.285156 2.261719 18.773438 2.820312 24.109375 C 3.519531 30.746094 7.003906 36.910156 12.070312 41.027344 C 15.21875 43.585938 23.867188 49.242188 26.300781 59.042969 " fill-opacity="1" fill-rule="nonzero"/></g><g clip-path="url(#a6d0f87f68)"><path fill="#c1ff72" d="M 33.074219 58.410156 C 50.375 49.03125 53.324219 36.5625 53.324219 36.5625 C 52.488281 47.453125 45.316406 54.976562 38.226562 59.816406 C 75.121094 50.773438 59.375 25.644531 59.375 25.644531 C 57.371094 28.886719 44.433594 33.949219 40.925781 36.328125 C 29.953125 43.757812 31.609375 53.902344 33.074219 58.410156 " fill-opacity="1" fill-rule="nonzero"/></g></svg>